<svg width="120" height="120" viewBox="0 0 120 120" fill="none" xmlns="http://www.w3.org/2000/svg">
  <!-- Rounded square background -->
  <rect width="120" height="120" rx="26" fill="#000000"/>
  
  <!-- R letter -->
  <path d="M38 35h24c8.837 0 16 7.163 16 16 0 6.5-3.9 12.1-9.5 14.6L82 85h-12l-12-18H50v18h-12V35zm12 12v12h12c3.314 0 6-2.686 6-6s-2.686-6-6-6H50z" fill="#FFFFFF"/>
  
  <!-- Signal waves -->
  <path d="M88 45c0-1.1 0.9-2 2-2s2 0.9 2 2c0 1.1-0.9 2-2 2s-2-0.9-2-2z" fill="#FFFFFF"/>
  <path d="M94 42c0-0.8 0.7-1.5 1.5-1.5s1.5 0.7 1.5 1.5-0.7 1.5-1.5 1.5-1.5-0.7-1.5-1.5z" fill="#FFFFFF"/>
  <path d="M99 40c0-0.6 0.5-1 1-1s1 0.4 1 1-0.5 1-1 1-1-0.4-1-1z" fill="#FFFFFF"/>
</svg>
