<svg width="512" height="512" viewBox="0 0 512 512" fill="none" xmlns="http://www.w3.org/2000/svg">
  <!-- Rounded square background -->
  <rect width="512" height="512" rx="110" fill="#000000"/>
  
  <!-- R letter -->
  <path d="M164 140h102.4c37.7 0 68.3 30.6 68.3 68.3 0 27.8-16.6 51.7-40.6 62.3l51.2 89.4h-51.2l-51.2-76.8h-27.7v76.8H164V140zm51.2 51.2v51.2h51.2c14.1 0 25.6-11.5 25.6-25.6s-11.5-25.6-25.6-25.6h-51.2z" fill="#FFFFFF"/>
  
  <!-- Signal waves -->
  <path d="M345 185c0-4.7 3.8-8.5 8.5-8.5s8.5 3.8 8.5 8.5-3.8 8.5-8.5 8.5-8.5-3.8-8.5-8.5z" fill="#FFFFFF"/>
  <path d="M370 175c0-3.4 2.8-6.4 6.4-6.4s6.4 2.8 6.4 6.4-2.8 6.4-6.4 6.4-6.4-2.8-6.4-6.4z" fill="#FFFFFF"/>
  <path d="M390 168c0-2.6 2.1-4.3 4.3-4.3s4.3 1.7 4.3 4.3-2.1 4.3-4.3 4.3-4.3-1.7-4.3-4.3z" fill="#FFFFFF"/>
</svg>
